<svg version="1.1" viewBox="0.0 0.0 960.0 720.0" fill="none" stroke="none" stroke-linecap="square" stroke-miterlimit="10" xmlns:xlink="http://www.w3.org/1999/xlink" xmlns="http://www.w3.org/2000/svg"><clipPath id="p.0"><path d="m0 0l960.0 0l0 720.0l-960.0 0l0 -720.0z" clip-rule="nonzero"/></clipPath><g clip-path="url(#p.0)"><path fill="#000000" fill-opacity="0.0" d="m0 0l960.0 0l0 720.0l-960.0 0z" fill-rule="evenodd"/><path fill="#cfe2f3" d="m136.77428 228.65749l0 0c0 -104.76016 81.45598 -189.68504 181.937 -189.68504l0 0c48.252716 0 94.52908 19.984615 128.6489 55.557457c34.119812 35.572853 53.288116 83.819984 53.288116 134.1276l0 0c0 104.76015 -81.45596 189.68504 -181.93701 189.68504l0 0c-100.48102 0 -181.937 -84.9249 -181.937 -189.68504z" fill-rule="evenodd"/><path stroke="#000000" stroke-width="1.0" stroke-linejoin="round" stroke-linecap="butt" d="m136.77428 228.65749l0 0c0 -104.76016 81.45598 -189.68504 181.937 -189.68504l0 0c48.252716 0 94.52908 19.984615 128.6489 55.557457c34.119812 35.572853 53.288116 83.819984 53.288116 134.1276l0 0c0 104.76015 -81.45596 189.68504 -181.93701 189.68504l0 0c-100.48102 0 -181.937 -84.9249 -181.937 -189.68504z" fill-rule="evenodd"/><path fill="#000000" fill-opacity="0.0" d="m331.8714 224.78084l-40.692932 191.52757" fill-rule="evenodd"/><path stroke="#000000" stroke-width="1.0" stroke-linejoin="round" stroke-linecap="butt" d="m331.8714 224.78084l-40.692932 191.52757" fill-rule="evenodd"/><path fill="#000000" fill-opacity="0.0" d="m331.8714 230.97244l-43.24411 -189.00787" fill-rule="evenodd"/><path stroke="#000000" stroke-width="1.0" stroke-linejoin="round" stroke-linecap="butt" d="m331.8714 230.97244l-43.24411 -189.00787" fill-rule="evenodd"/><path fill="#000000" fill-opacity="0.0" d="m291.67978 416.8058l231.37009 19.118103" fill-rule="evenodd"/><path stroke="#000000" stroke-width="1.0" stroke-linejoin="round" stroke-linecap="butt" d="m291.67978 416.8058l225.39047 18.623993" fill-rule="evenodd"/><path fill="#000000" stroke="#000000" stroke-width="1.0" stroke-linecap="butt" d="m516.9342 437.0759l4.6587524 -1.2723999l-4.3867188 -2.0198364z" fill-rule="evenodd"/><path fill="#000000" fill-opacity="0.0" d="m288.92126 42.254593l224.09448 -28.062992" fill-rule="evenodd"/><path stroke="#000000" stroke-width="1.0" stroke-linejoin="round" stroke-linecap="butt" d="m288.92126 42.254593l218.14099 -27.317444" fill-rule="evenodd"/><path fill="#000000" stroke="#000000" stroke-width="1.0" stroke-linecap="butt" d="m507.2675 16.57608l4.297699 -2.2028265l-4.708191 -1.075037z" fill-rule="evenodd"/><path fill="#000000" fill-opacity="0.0" d="m688.0 170.58661l6.204712 1.5433197" fill-rule="evenodd"/><path stroke="#000000" stroke-width="1.0" stroke-linejoin="round" stroke-linecap="butt" d="m688.0 170.58661l0.3821411 0.095062256" fill-rule="evenodd"/><path fill="#000000" stroke="#000000" stroke-width="1.0" stroke-linecap="butt" d="m687.98346 172.28456l4.8026123 -0.5075073l-4.005249 -2.698288z" fill-rule="evenodd"/><path fill="#000000" fill-opacity="0.0" d="m516.1181 402.84384l68.12598 0l0 68.12598l-68.12598 0z" fill-rule="evenodd"/><path fill="#000000" d="m542.8525 420.98697l0.234375 4.765625l-0.578125 0q-0.15625 -1.265625 -0.453125 -1.796875q-0.453125 -0.875 -1.234375 -1.28125q-0.765625 -0.421875 -2.015625 -0.421875l-2.859375 0l0 15.515625q0 1.875 0.40625 2.328125q0.5625 0.640625 1.75 0.640625l0.703125 0l0 0.546875l-8.609375 0l0 -0.546875l0.71875 0q1.28125 0 1.828125 -0.78125q0.328125 -0.484375 0.328125 -2.1875l0 -15.515625l-2.4375 0q-1.421875 0 -2.03125 0.21875q-0.78125 0.28125 -1.328125 1.09375q-0.546875 0.796875 -0.65625 2.1875l-0.578125 0l0.25 -4.765625l16.5625 0z" fill-rule="nonzero"/><path fill="#000000" d="m550.39105 443.3776l0 3.109375l-0.328125 0q-0.375 -1.46875 -0.96875 -2.0q-0.59375 -0.53125 -1.515625 -0.53125q-0.703125 0 -1.140625 0.375q-0.421875 0.375 -0.421875 0.8125q0 0.5625 0.328125 0.96875q0.296875 0.40625 1.25 0.859375l1.453125 0.71875q2.03125 0.984375 2.03125 2.59375q0 1.25 -0.953125 2.015625q-0.9375 0.765625 -2.09375 0.765625q-0.84375 0 -1.921875 -0.296875q-0.328125 -0.109375 -0.546875 -0.109375q-0.21875 0 -0.359375 0.265625l-0.328125 0l0 -3.265625l0.328125 0q0.28125 1.40625 1.0625 2.109375q0.796875 0.703125 1.78125 0.703125q0.6875 0 1.125 -0.40625q0.4375 -0.40625 0.4375 -0.96875q0 -0.6875 -0.484375 -1.15625q-0.484375 -0.46875 -1.9375 -1.1875q-1.453125 -0.71875 -1.890625 -1.296875q-0.453125 -0.5625 -0.453125 -1.4375q0 -1.125 0.765625 -1.875q0.78125 -0.765625 2.0 -0.765625q0.546875 0 1.3125 0.21875q0.515625 0.15625 0.6875 0.15625q0.15625 0 0.234375 -0.0625q0.09375 -0.078125 0.21875 -0.3125l0.328125 0z" fill-rule="nonzero"/><path fill="#000000" fill-opacity="0.0" d="m511.4882 -7.484252l68.12601 0l0 68.125984l-68.12601 0z" fill-rule="evenodd"/><path fill="#000000" d="m538.22253 10.658872l0.234375 4.765625l-0.578125 0q-0.15625 -1.265625 -0.453125 -1.796875q-0.453125 -0.875 -1.234375 -1.28125q-0.765625 -0.421875 -2.015625 -0.421875l-2.859375 0l0 15.515626q0 1.875 0.40625 2.328125q0.5625 0.640625 1.75 0.640625l0.703125 0l0 0.546875l-8.609375 0l0 -0.546875l0.71875 0q1.28125 0 1.828125 -0.78125q0.328125 -0.484375 0.328125 -2.1875l0 -15.515626l-2.4375 0q-1.421875 0 -2.03125 0.21875q-0.78125 0.28125 -1.328125 1.09375q-0.546875 0.796875 -0.65625 2.1875l-0.578125 0l0.25 -4.765625l16.5625 0z" fill-rule="nonzero"/><path fill="#000000" d="m542.5111 30.315123l0 2.999998l2.125 0l0 0.703125l-2.125 0l0 5.921875q0 0.890625 0.25 1.203125q0.25 0.296875 0.65625 0.296875q0.328125 0 0.640625 -0.203125q0.3125 -0.203125 0.46875 -0.59375l0.390625 0q-0.34375 0.96875 -0.984375 1.46875q-0.640625 0.5 -1.3125 0.5q-0.46875 0 -0.90625 -0.25q-0.4375 -0.265625 -0.65625 -0.734375q-0.203125 -0.484375 -0.203125 -1.46875l0 -6.140625l-1.4375 0l0 -0.328125q0.546875 -0.21875 1.109375 -0.75q0.578125 -0.53125 1.03125 -1.2343731q0.234375 -0.390625 0.640625 -1.390625l0.3125 0z" fill-rule="nonzero"/><path fill="#000000" fill-opacity="0.0" d="m275.48032 203.19948l52.661407 0l0 52.661407l-52.661407 0z" fill-rule="evenodd"/><path fill="#000000" d="m302.05844 240.9651q-0.3125 3.6875 -3.125 3.6875q-0.953125 0 -1.75 -0.578125q-0.796875 -0.578125 -0.984375 -1.484375q-2.03125 2.0625 -4.53125 2.0625q-2.765625 0 -4.5 -2.328125q-1.578125 -2.109375 -1.578125 -4.953125q0 -3.28125 1.9375 -5.796875q2.09375 -2.734375 5.265625 -2.734375q1.78125 0 3.015625 0.90625l2.234375 -0.890625l0.703125 0l0 11.75q0 1.171875 0.140625 1.625q0.265625 0.890625 1.15625 0.890625q1.109375 0 1.421875 -2.15625l0.59375 0zm-6.0 0.5625l0 -6.4375q0 -5.25 -3.453125 -5.25q-2.078125 0 -3.171875 2.21875q-0.875 1.734375 -0.875 4.015625q0 2.515625 1.046875 4.4375q1.265625 2.359375 3.578125 2.359375q1.53125 0 2.875 -1.34375z" fill-rule="nonzero"/><path fill="#000000" fill-opacity="0.0" d="m307.8819 92.38058l43.338562 0l0 52.661415l-43.338562 0z" fill-rule="evenodd"/><path fill="#000000" d="m321.42877 115.36995l0 2.8125q1.5625 -2.8125 3.21875 -2.8125q0.75 0 1.234375 0.453125q0.5 0.453125 0.5 1.0625q0 0.53125 -0.359375 0.90625q-0.34375 0.359375 -0.84375 0.359375q-0.46875 0 -1.078125 -0.46875q-0.59375 -0.46875 -0.875 -0.46875q-0.25 0 -0.53125 0.265625q-0.609375 0.5625 -1.265625 1.859375l0 6.0q0 1.03125 0.25 1.5625q0.1875 0.375 0.625 0.625q0.453125 0.234375 1.3125 0.234375l0 0.5l-6.421875 0l0 -0.5q0.953125 0 1.421875 -0.296875q0.34375 -0.21875 0.484375 -0.6875q0.0625 -0.234375 0.0625 -1.328125l0 -4.859375q0 -2.1875 -0.09375 -2.59375q-0.078125 -0.421875 -0.328125 -0.609375q-0.234375 -0.203125 -0.59375 -0.203125q-0.421875 0 -0.953125 0.203125l-0.140625 -0.484375l3.796875 -1.53125l0.578125 0z" fill-rule="nonzero"/><path fill="#000000" d="m326.1905 131.24495l2.5625 -1.03125l0.34375 0l0 1.9375q0.65625 -1.09375 1.296875 -1.53125q0.65625 -0.453125 1.375 -0.453125q1.265625 0 2.09375 0.984375q1.03125 1.203125 1.03125 3.140625q0 2.15625 -1.234375 3.5625q-1.015625 1.15625 -2.578125 1.15625q-0.671875 0 -1.15625 -0.1875q-0.359375 -0.140625 -0.828125 -0.546875l0 2.546875q0 0.859375 0.109375 1.078125q0.109375 0.234375 0.359375 0.375q0.265625 0.140625 0.953125 0.140625l0 0.328125l-4.375 0l0 -0.328125l0.21875 0q0.515625 0 0.859375 -0.1875q0.171875 -0.109375 0.265625 -0.328125q0.109375 -0.21875 0.109375 -1.140625l0 -7.890625q0 -0.8125 -0.078125 -1.015625q-0.078125 -0.21875 -0.234375 -0.328125q-0.15625 -0.109375 -0.4375 -0.109375q-0.21875 0 -0.546875 0.125l-0.109375 -0.296875zm2.90625 1.453125l0 3.109375q0 1.015625 0.09375 1.328125q0.125 0.53125 0.609375 0.9375q0.5 0.390625 1.265625 0.390625q0.90625 0 1.46875 -0.703125q0.734375 -0.9375 0.734375 -2.609375q0 -1.921875 -0.828125 -2.953125q-0.59375 -0.703125 -1.390625 -0.703125q-0.4375 0 -0.859375 0.21875q-0.328125 0.15625 -1.09375 0.984375z" fill-rule="nonzero"/><path fill="#cfe2f3" d="m364.7454 228.3128l0 0c0 18.292084 -14.72348 34.01468 -35.106842 37.489075l0 -2.4347534l-8.23172 3.1298828l8.23172 1.739624l0 -2.4347534l0 0c20.383362 -3.4743958 35.106842 -19.196991 35.106842 -37.489075z" fill-rule="evenodd"/><path fill="#a5b4c2" d="m321.40683 190.12862l0 0c23.935242 0 43.338562 17.095642 43.338562 38.18419l0 0c0 -21.088547 -19.40332 -38.18419 -43.338562 -38.18419z" fill-rule="evenodd"/><path fill="#000000" fill-opacity="0.0" d="m364.7454 228.3128l0 0c0 18.292084 -14.72348 34.01468 -35.106842 37.489075l0 -2.4347534l-8.23172 3.1298828l8.23172 1.739624l0 -2.4347534l0 0c20.383362 -3.4743958 35.106842 -19.196991 35.106842 -37.489075l0 0l0 0c0 -21.088547 -19.40332 -38.18419 -43.338562 -38.18419l0 0l0 0c23.935242 0 43.338562 17.095642 43.338562 38.18419" fill-rule="evenodd"/><path stroke="#000000" stroke-width="1.0" stroke-linejoin="round" stroke-linecap="butt" d="m364.7454 228.3128l0 0c0 18.292084 -14.72348 34.01468 -35.106842 37.489075l0 -2.4347534l-8.23172 3.1298828l8.23172 1.739624l0 -2.4347534l0 0c20.383362 -3.4743958 35.106842 -19.196991 35.106842 -37.489075l0 0l0 0c0 -21.088547 -19.40332 -38.18419 -43.338562 -38.18419l0 0l0 0c23.935242 0 43.338562 17.095642 43.338562 38.18419" fill-rule="evenodd"/><path fill="#cfe2f3" d="m261.69028 229.70068l0 0c0 28.798248 25.218323 52.47928 57.18576 53.699738l0 0l2.5307922 0.04827881l-2.5307922 -0.04827881l0 0l0 0c-31.967438 -1.220459 -57.18576 -24.90149 -57.18576 -53.699738z" fill-rule="evenodd"/><path fill="#a5b4c2" d="m321.40683 175.95265l0 0c-32.98053 0 -59.716553 24.063812 -59.716553 53.74803l0 0c0 -29.68422 26.736023 -53.74803 59.716553 -53.74803z" fill-rule="evenodd"/><path fill="#000000" fill-opacity="0.0" d="m261.69028 229.70068l0 0c0 28.798248 25.218323 52.47928 57.18576 53.699738l0 0l2.5307922 0.04827881l-2.5307922 -0.04827881l0 0l0 0c-31.967438 -1.220459 -57.18576 -24.90149 -57.18576 -53.699738l0 0l0 0c0 -29.68422 26.736023 -53.74803 59.716553 -53.74803l0 0l0 0c-32.98053 0 -59.716553 24.063812 -59.716553 53.74803" fill-rule="evenodd"/><path stroke="#000000" stroke-width="1.0" stroke-linejoin="round" stroke-linecap="butt" d="m261.69028 229.70068l0 0c0 28.798248 25.218323 52.47928 57.18576 53.699738l0 0l2.5307922 0.04827881l-2.5307922 -0.04827881l0 0l0 0c-31.967438 -1.220459 -57.18576 -24.90149 -57.18576 -53.699738l0 0l0 0c0 -29.68422 26.736023 -53.74803 59.716553 -53.74803l0 0l0 0c-32.98053 0 -59.716553 24.063812 -59.716553 53.74803" fill-rule="evenodd"/><path fill="#000000" fill-opacity="0.0" d="m364.74408 203.19948l59.716553 0l0 59.999985l-59.716553 0z" fill-rule="evenodd"/><path fill="#000000" d="m380.16595 227.78384l-0.375 3.734375q-0.09375 0.96875 -0.09375 1.953125q0 1.859375 0.421875 2.265625q0.4375 0.390625 1.0 0.390625q1.25 0 1.484375 -1.578125l0.484375 0q-0.421875 3.609375 -2.875 3.609375q-2.5625 0 -2.5625 -2.9375q0 -1.484375 0.28125 -3.703125l0.484375 -3.734375l-1.28125 0q-1.078125 0 -1.671875 0.359375q-0.59375 0.34375 -1.09375 1.4375l-0.46875 0q0.421875 -1.4375 0.984375 -2.28125q0.578125 -0.84375 1.09375 -1.125q0.53125 -0.296875 1.546875 -0.296875l6.40625 0l0 1.90625l-3.765625 0z" fill-rule="nonzero"/><path fill="#000000" d="m384.44043 240.64322l2.4375 -0.984375l0.34375 0l0 1.84375q0.609375 -1.046875 1.21875 -1.46875q0.625 -0.421875 1.3125 -0.421875q1.203125 0 2.0 0.9375q0.984375 1.15625 0.984375 2.984375q0 2.0625 -1.1875 3.40625q-0.96875 1.109375 -2.4375 1.109375q-0.65625 0 -1.109375 -0.1875q-0.359375 -0.125 -0.78125 -0.515625l0 2.40625q0 0.828125 0.09375 1.046875q0.09375 0.21875 0.34375 0.34375q0.25 0.140625 0.90625 0.140625l0 0.3125l-4.171875 0l0 -0.3125l0.21875 0q0.484375 0 0.8125 -0.1875q0.171875 -0.09375 0.25 -0.3125q0.09375 -0.203125 0.09375 -1.078125l0 -7.515625q0 -0.765625 -0.0625 -0.96875q-0.0625 -0.21875 -0.21875 -0.3125q-0.15625 -0.109375 -0.421875 -0.109375q-0.203125 0 -0.515625 0.125l-0.109375 -0.28125zm2.78125 1.375l0 2.96875q0 0.96875 0.078125 1.265625q0.109375 0.5 0.578125 0.890625q0.484375 0.375 1.203125 0.375q0.859375 0 1.40625 -0.671875q0.703125 -0.890625 0.703125 -2.484375q0 -1.828125 -0.796875 -2.8125q-0.5625 -0.671875 -1.328125 -0.671875q-0.40625 0 -0.8125 0.203125q-0.3125 0.15625 -1.03125 0.9375z" fill-rule="nonzero"/><path fill="#000000" fill-opacity="0.0" d="m247.2231 461.11023l714.4567 0l0 42.015747l-714.4567 0z" fill-rule="evenodd"/><path fill="#cfe2f3" d="m43.889763 679.1942l229.6828 0l0 -3.7874146l11.293579 7.574829l-11.293579 7.574829l0 -3.7874146l-229.6828 0z" fill-rule="evenodd"/><path stroke="#000000" stroke-width="1.0" stroke-linejoin="round" stroke-linecap="butt" d="m43.889763 679.1942l229.6828 0l0 -3.7874146l11.293579 7.574829l-11.293579 7.574829l0 -3.7874146l-229.6828 0z" fill-rule="evenodd"/><path fill="#cfe2f3" d="m40.614174 482.97113l6.661415 -6.6614075l6.661419 6.6614075l-3.3307076 0l0 202.59845l-6.661419 0l0 -202.59845z" fill-rule="evenodd"/><path stroke="#000000" stroke-width="1.0" stroke-linejoin="round" stroke-linecap="butt" d="m40.614174 482.97113l6.661415 -6.6614075l6.661419 6.6614075l-3.3307076 0l0 202.59845l-6.661419 0l0 -202.59845z" fill-rule="evenodd"/><path fill="#000000" fill-opacity="0.0" d="m52.40945 466.5013l40.692913 0l0 36.629913l-40.692913 0z" fill-rule="evenodd"/><path fill="#000000" d="m66.28445 492.14008l0 -4.546875l-4.531246 0l0 -0.75l4.531246 0l0 -4.53125l0.734375 0l0 4.53125l4.546875 0l0 0.75l-4.546875 0l0 4.546875l-0.734375 0zm5.755844 -7.0625l3.890625 0l0 0.34375l-0.1875 0q-0.421875 0 -0.625 0.171875q-0.203125 0.171875 -0.203125 0.4375q0 0.359375 0.296875 0.984375l2.03125 4.203125l1.875 -4.609375q0.15625 -0.359375 0.15625 -0.734375q0 -0.15625 -0.0625 -0.234375q-0.078125 -0.109375 -0.234375 -0.15625q-0.15625 -0.0625 -0.546875 -0.0625l0 -0.34375l2.71875 0l0 0.34375q-0.34375 0.03125 -0.53125 0.140625q-0.171875 0.109375 -0.390625 0.40625q-0.078125 0.125 -0.3125 0.703125l-3.390625 8.328125q-0.5 1.203125 -1.296875 1.828125q-0.796875 0.625 -1.53125 0.625q-0.53125 0 -0.890625 -0.3125q-0.34375 -0.3125 -0.34375 -0.71875q0 -0.375 0.25 -0.609375q0.25 -0.234375 0.6875 -0.234375q0.3125 0 0.828125 0.203125q0.359375 0.140625 0.453125 0.140625q0.28125 0 0.59375 -0.28125q0.328125 -0.28125 0.65625 -1.09375l0.59375 -1.453125l-3.0 -6.296875q-0.140625 -0.28125 -0.4375 -0.703125q-0.234375 -0.3125 -0.375 -0.421875q-0.203125 -0.140625 -0.671875 -0.25l0 -0.34375z" fill-rule="nonzero"/><path fill="#000000" fill-opacity="0.0" d="m271.2021 643.55383l40.692932 0l0 42.015747l-40.692932 0z" fill-rule="evenodd"/><path fill="#000000" d="m284.87396 668.31757l0 -3.671875l-3.640625 0l0 -1.515625l3.640625 0l0 -3.640625l1.546875 0l0 3.640625l3.640625 0l0 1.515625l-3.640625 0l0 3.671875l-1.546875 0zm6.3637085 2.15625l3.53125 -5.03125l-3.265625 -4.640625l2.046875 0l1.484375 2.265625q0.421875 0.640625 0.671875 1.078125q0.40625 -0.59375 0.734375 -1.0625l1.640625 -2.28125l1.953125 0l-3.34375 4.546875l3.59375 5.125l-2.015625 0l-1.984375 -3.0l-0.515625 -0.8125l-2.546875 3.8125l-1.984375 0z" fill-rule="nonzero"/></g></svg>