<svg version="1.1" viewBox="0.0 0.0 960.0 720.0" fill="none" stroke="none" stroke-linecap="square" stroke-miterlimit="10" xmlns:xlink="http://www.w3.org/1999/xlink" xmlns="http://www.w3.org/2000/svg"><clipPath id="p.0"><path d="m0 0l960.0 0l0 720.0l-960.0 0l0 -720.0z" clip-rule="nonzero"/></clipPath><g clip-path="url(#p.0)"><path fill="#000000" fill-opacity="0.0" d="m0 0l960.0 0l0 720.0l-960.0 0z" fill-rule="evenodd"/><path fill="#cfe2f3" d="m715.3619 282.92722l0 0c0 -84.530014 -65.867004 -153.05513 -147.1181 -153.05513l0 0c-39.018127 0 -76.4382 16.125412 -104.0282 44.82881c-27.589996 28.7034 -43.089905 67.63356 -43.089905 108.22632l0 0c0 84.53 65.867035 153.05511 147.1181 153.05511l0 0c81.2511 0 147.1181 -68.525116 147.1181 -153.05511z" fill-rule="evenodd"/><path stroke="#000000" stroke-width="1.0" stroke-linejoin="round" stroke-linecap="butt" d="m715.3619 282.92722l0 0c0 -84.530014 -65.867004 -153.05513 -147.1181 -153.05513l0 0c-39.018127 0 -76.4382 16.125412 -104.0282 44.82881c-27.589996 28.7034 -43.089905 67.63356 -43.089905 108.22632l0 0c0 84.53 65.867035 153.05511 147.1181 153.05511l0 0c81.2511 0 147.1181 -68.525116 147.1181 -153.05511z" fill-rule="evenodd"/><path fill="#000000" fill-opacity="0.0" d="m557.6061 279.8023l32.91333 154.55118" fill-rule="evenodd"/><path stroke="#000000" stroke-width="1.0" stroke-linejoin="round" stroke-linecap="butt" d="m557.6061 279.8023l32.91333 154.55118" fill-rule="evenodd"/><path fill="#000000" fill-opacity="0.0" d="m557.6061 284.79834l34.960632 -152.50392" fill-rule="evenodd"/><path stroke="#000000" stroke-width="1.0" stroke-linejoin="round" stroke-linecap="butt" d="m557.6061 284.79834l34.960632 -152.50392" fill-rule="evenodd"/><path fill="#000000" fill-opacity="0.0" d="m590.10504 434.7487l-187.05511 15.433075" fill-rule="evenodd"/><path stroke="#000000" stroke-width="1.0" stroke-linejoin="round" stroke-linecap="butt" d="m590.10504 434.7487l-181.07544 14.939728" fill-rule="evenodd"/><path fill="#000000" stroke="#000000" stroke-width="1.0" stroke-linecap="butt" d="m408.89377 448.04227l-4.386902 2.019287l4.658539 1.2729797z" fill-rule="evenodd"/><path fill="#000000" fill-opacity="0.0" d="m592.3356 132.52048l-181.22833 -22.645668" fill-rule="evenodd"/><path stroke="#000000" stroke-width="1.0" stroke-linejoin="round" stroke-linecap="butt" d="m592.3356 132.52048l-175.27463 -21.90171" fill-rule="evenodd"/><path fill="#000000" stroke="#000000" stroke-width="1.0" stroke-linecap="butt" d="m417.26575 108.97978l-4.7078857 1.0763016l4.298279 2.2016754z" fill-rule="evenodd"/><path fill="#000000" fill-opacity="0.0" d="m408.62384 423.4827l-55.08661 0l0 54.960632l55.08661 0z" fill-rule="evenodd"/><path fill="#000000" d="m380.2716 441.62582l0.234375 4.765625l-0.578125 0q-0.15625 -1.265625 -0.453125 -1.796875q-0.453125 -0.875 -1.234375 -1.28125q-0.765625 -0.421875 -2.015625 -0.421875l-2.859375 0l0 15.515625q0 1.875 0.40625 2.328125q0.5625 0.640625 1.75 0.640625l0.703125 0l0 0.546875l-8.609375 0l0 -0.546875l0.71875 0q1.28125 0 1.828125 -0.78125q0.328125 -0.484375 0.328125 -2.1875l0 -15.515625l-2.4375 0q-1.421875 0 -2.03125 0.21875q-0.78125 0.28125 -1.328125 1.09375q-0.546875 0.796875 -0.65625 2.1875l-0.578125 0l0.25 -4.765625l16.5625 0z" fill-rule="nonzero"/><path fill="#000000" d="m387.81018 464.01645l0 3.109375l-0.328125 0q-0.375 -1.46875 -0.96875 -2.0q-0.59375 -0.53125 -1.515625 -0.53125q-0.703125 0 -1.140625 0.375q-0.421875 0.375 -0.421875 0.8125q0 0.5625 0.328125 0.96875q0.296875 0.40625 1.25 0.859375l1.453125 0.71875q2.03125 0.984375 2.03125 2.59375q0 1.25 -0.953125 2.015625q-0.9375 0.765625 -2.09375 0.765625q-0.84375 0 -1.921875 -0.296875q-0.328125 -0.109375 -0.546875 -0.109375q-0.21875 0 -0.359375 0.265625l-0.328125 0l0 -3.265625l0.328125 0q0.28125 1.40625 1.0625 2.109375q0.796875 0.703125 1.78125 0.703125q0.6875 0 1.125 -0.40625q0.4375 -0.40625 0.4375 -0.96875q0 -0.6875 -0.484375 -1.15625q-0.484375 -0.46875 -1.9375 -1.1875q-1.453125 -0.71875 -1.890625 -1.296875q-0.453125 -0.5625 -0.453125 -1.4375q0 -1.125 0.765625 -1.875q0.78125 -0.765625 2.0 -0.765625q0.546875 0 1.3125 0.21875q0.515625 0.15625 0.6875 0.15625q0.15625 0 0.234375 -0.0625q0.09375 -0.078125 0.21875 -0.3125l0.328125 0z" fill-rule="nonzero"/><path fill="#000000" fill-opacity="0.0" d="m412.3676 92.385826l-55.08661 0l0 54.960625l55.08661 0z" fill-rule="evenodd"/><path fill="#000000" d="m384.01538 110.52895l0.234375 4.765625l-0.578125 0q-0.15625 -1.265625 -0.453125 -1.796875q-0.453125 -0.875 -1.234375 -1.28125q-0.765625 -0.421875 -2.015625 -0.421875l-2.859375 0l0 15.515625q0 1.8749924 0.40625 2.3281174q0.5625 0.640625 1.75 0.640625l0.703125 0l0 0.546875l-8.609375 0l0 -0.546875l0.71875 0q1.28125 0 1.828125 -0.78125q0.328125 -0.484375 0.328125 -2.1874924l0 -15.515625l-2.4375 0q-1.421875 0 -2.03125 0.21875q-0.78125 0.28125 -1.328125 1.09375q-0.546875 0.796875 -0.65625 2.1875l-0.578125 0l0.25 -4.765625l16.5625 0z" fill-rule="nonzero"/><path fill="#000000" d="m388.30392 130.1852l0 3.0l2.125 0l0 0.703125l-2.125 0l0 5.921875q0 0.890625 0.25 1.203125q0.25 0.296875 0.65625 0.296875q0.328125 0 0.640625 -0.203125q0.3125 -0.203125 0.46875 -0.59375l0.390625 0q-0.34375 0.96875 -0.984375 1.46875q-0.640625 0.5 -1.3125 0.5q-0.46875 0 -0.90625 -0.25q-0.4375 -0.265625 -0.65625 -0.734375q-0.203125 -0.484375 -0.203125 -1.46875l0 -6.140625l-1.4375 0l0 -0.328125q0.546875 -0.21875 1.109375 -0.75q0.578125 -0.53125 1.03125 -1.234375q0.234375 -0.390625 0.640625 -1.390625l0.3125 0z" fill-rule="nonzero"/><path fill="#000000" fill-opacity="0.0" d="m611.5189 255.90651l-42.58264 0l0 42.488174l42.58264 0z" fill-rule="evenodd"/><path fill="#000000" d="m582.405 304.0315l-2.671875 0q0.578125 -2.75 0.578125 -4.984375l0 -17.71875q0 -2.765625 0.5 -4.109375q0.5 -1.359375 1.9375 -2.390625q1.4375 -1.03125 3.59375 -1.03125q2.578125 0 4.328125 1.359375q1.75 1.359375 1.75 3.859375q0 2.9375 -2.78125 4.8125q4.140625 1.953125 4.140625 6.125q0 2.28125 -1.09375 4.078125q-1.09375 1.796875 -2.546875 2.5625q-1.4375 0.765625 -3.4375 0.765625q-2.265625 0 -3.703125 -1.703125l0 3.03125q0 3.109375 -0.59375 5.34375zm0.59375 -9.84375q1.265625 2.09375 3.546875 2.09375q2.203125 0 3.21875 -1.59375q1.03125 -1.609375 1.03125 -3.90625q0 -1.75 -0.6875 -3.578125q-0.671875 -1.828125 -1.71875 -2.796875q-0.984375 0.25 -1.765625 0.25q-1.640625 0 -1.640625 -0.859375q0 -0.78125 1.375 -0.78125q0.875 0 2.15625 0.390625q1.15625 -1.953125 1.15625 -4.25q0 -2.0625 -0.90625 -3.140625q-0.90625 -1.09375 -2.34375 -1.09375q-1.15625 0 -1.984375 0.65625q-0.828125 0.640625 -1.140625 1.546875q-0.296875 0.90625 -0.296875 2.953125l0 14.109375z" fill-rule="nonzero"/><path fill="#000000" fill-opacity="0.0" d="m622.97015 172.9685l-81.00787 0l0 42.48819l81.00787 0z" fill-rule="evenodd"/><path fill="#000000" d="m555.50916 195.95787l0 2.8125q1.5625 -2.8125 3.21875 -2.8125q0.75 0 1.234375 0.453125q0.5 0.453125 0.5 1.0625q0 0.53125 -0.359375 0.90625q-0.34375 0.359375 -0.84375 0.359375q-0.46875 0 -1.078125 -0.46875q-0.59375 -0.46875 -0.875 -0.46875q-0.25 0 -0.53125 0.265625q-0.609375 0.5625 -1.265625 1.859375l0 6.0q0 1.03125 0.25 1.5625q0.1875 0.375 0.625 0.625q0.453125 0.234375 1.3125 0.234375l0 0.5l-6.421875 0l0 -0.5q0.953125 0 1.421875 -0.296875q0.34375 -0.21875 0.484375 -0.6875q0.0625 -0.234375 0.0625 -1.328125l0 -4.859375q0 -2.1875 -0.09375 -2.59375q-0.078125 -0.421875 -0.328125 -0.609375q-0.234375 -0.203125 -0.59375 -0.203125q-0.421875 0 -0.953125 0.203125l-0.140625 -0.484375l3.796875 -1.53125l0.578125 0z" fill-rule="nonzero"/><path fill="#000000" d="m566.25525 210.75475l0 2.84375l-0.296875 0q-0.34375 -1.34375 -0.890625 -1.8125q-0.53125 -0.484375 -1.375 -0.484375q-0.640625 0 -1.03125 0.34375q-0.390625 0.328125 -0.390625 0.734375q0 0.515625 0.296875 0.875q0.28125 0.375 1.140625 0.796875l1.328125 0.640625q1.859375 0.90625 1.859375 2.375q0 1.140625 -0.875 1.84375q-0.859375 0.6875 -1.921875 0.6875q-0.765625 0 -1.75 -0.265625q-0.296875 -0.09375 -0.484375 -0.09375q-0.21875 0 -0.328125 0.234375l-0.296875 0l0 -2.96875l0.296875 0q0.25 1.265625 0.96875 1.921875q0.71875 0.640625 1.609375 0.640625q0.640625 0 1.03125 -0.359375q0.390625 -0.375 0.390625 -0.90625q0 -0.625 -0.4375 -1.046875q-0.4375 -0.4375 -1.765625 -1.09375q-1.3125 -0.65625 -1.71875 -1.171875q-0.421875 -0.53125 -0.421875 -1.3125q0 -1.03125 0.703125 -1.71875q0.71875 -0.703125 1.828125 -0.703125q0.5 0 1.203125 0.21875q0.453125 0.125 0.609375 0.125q0.15625 0 0.234375 -0.0625q0.078125 -0.0625 0.1875 -0.28125l0.296875 0z" fill-rule="nonzero"/><path fill="#cfe2f3" d="m531.02405 282.65173l0 0c0 14.759766 11.909363 27.446228 28.39679 30.249695l0 -1.9693909l6.658325 2.5302734l-6.658325 1.4085083l0 -1.9693909l0 0c-16.487427 -2.8034668 -28.39679 -15.489929 -28.39679 -30.249695z" fill-rule="evenodd"/><path fill="#a5b4c2" d="m566.07916 251.84116l0 0c-19.360413 0 -35.055115 13.794373 -35.055115 30.810577l0 0c0 -17.016205 15.694702 -30.810577 35.055115 -30.810577z" fill-rule="evenodd"/><path fill="#000000" fill-opacity="0.0" d="m531.02405 282.65173l0 0c0 14.759766 11.909363 27.446228 28.39679 30.249695l0 -1.9693909l6.658325 2.5302734l-6.658325 1.4085083l0 -1.9693909l0 0c-16.487427 -2.8034668 -28.39679 -15.489929 -28.39679 -30.249695l0 0l0 0c0 -17.016205 15.694702 -30.810577 35.055115 -30.810577l0 0l0 0c-19.360413 0 -35.055115 13.794373 -35.055115 30.810577" fill-rule="evenodd"/><path stroke="#000000" stroke-width="1.0" stroke-linejoin="round" stroke-linecap="butt" d="m531.02405 282.65173l0 0c0 14.759766 11.909363 27.446228 28.39679 30.249695l0 -1.9693909l6.658325 2.5302734l-6.658325 1.4085083l0 -1.9693909l0 0c-16.487427 -2.8034668 -28.39679 -15.489929 -28.39679 -30.249695l0 0l0 0c0 -17.016205 15.694702 -30.810577 35.055115 -30.810577l0 0l0 0c-19.360413 0 -35.055115 13.794373 -35.055115 30.810577" fill-rule="evenodd"/><path fill="#cfe2f3" d="m614.3546 283.77255l0 0c0 23.237732 -20.376831 42.346283 -46.20703 43.331085l0 0l-2.0449219 0.038970947l2.0449219 -0.038970947l0 0l0 0c25.8302 -0.98480225 46.20703 -20.093353 46.20703 -43.331085z" fill-rule="evenodd"/><path fill="#a5b4c2" d="m566.10266 240.40247l0 0c26.648804 0 48.251953 19.41745 48.251953 43.370087l0 0c0 -23.952637 -21.60315 -43.370087 -48.251953 -43.370087z" fill-rule="evenodd"/><path fill="#000000" fill-opacity="0.0" d="m614.3546 283.77255l0 0c0 23.237732 -20.376831 42.346283 -46.20703 43.331085l0 0l-2.0449219 0.038970947l2.0449219 -0.038970947l0 0l0 0c25.8302 -0.98480225 46.20703 -20.093353 46.20703 -43.331085l0 0l0 0c0 -23.952637 -21.60315 -43.370087 -48.251953 -43.370087l0 0l0 0c26.648804 0 48.251953 19.41745 48.251953 43.370087" fill-rule="evenodd"/><path stroke="#000000" stroke-width="1.0" stroke-linejoin="round" stroke-linecap="butt" d="m614.3546 283.77255l0 0c0 23.237732 -20.376831 42.346283 -46.20703 43.331085l0 0l-2.0449219 0.038970947l2.0449219 -0.038970947l0 0l0 0c25.8302 -0.98480225 46.20703 -20.093353 46.20703 -43.331085l0 0l0 0c0 -23.952637 -21.60315 -43.370087 -48.251953 -43.370087l0 0l0 0c26.648804 0 48.251953 19.41745 48.251953 43.370087" fill-rule="evenodd"/><path fill="#000000" fill-opacity="0.0" d="m557.60516 267.0207l-48.251953 0l0 48.409424l48.251953 0z" fill-rule="evenodd"/><path fill="#000000" d="m524.7751 291.60504l-0.375 3.734375q-0.09375 0.96875 -0.09375 1.953125q0 1.859375 0.421875 2.265625q0.4375 0.390625 1.0 0.390625q1.25 0 1.484375 -1.578125l0.484375 0q-0.421875 3.609375 -2.875 3.609375q-2.5625 0 -2.5625 -2.9375q0 -1.484375 0.28125 -3.703125l0.484375 -3.734375l-1.28125 0q-1.078125 0 -1.671875 0.359375q-0.59375 0.34375 -1.09375 1.4375l-0.46875 0q0.421875 -1.4375 0.984375 -2.28125q0.578125 -0.84375 1.09375 -1.125q0.53125 -0.296875 1.546875 -0.296875l6.40625 0l0 1.90625l-3.765625 0z" fill-rule="nonzero"/><path fill="#000000" d="m534.7527 303.43317l0 2.71875l-0.28125 0q-0.328125 -1.28125 -0.84375 -1.734375q-0.515625 -0.46875 -1.3125 -0.46875q-0.609375 0 -0.984375 0.328125q-0.375 0.3125 -0.375 0.703125q0 0.484375 0.28125 0.84375q0.265625 0.34375 1.09375 0.75l1.265625 0.609375q1.765625 0.859375 1.765625 2.265625q0 1.09375 -0.828125 1.765625q-0.8125 0.65625 -1.828125 0.65625q-0.734375 0 -1.671875 -0.265625q-0.28125 -0.09375 -0.46875 -0.09375q-0.203125 0 -0.3125 0.234375l-0.28125 0l0 -2.84375l0.28125 0q0.25 1.21875 0.921875 1.84375q0.6875 0.609375 1.546875 0.609375q0.59375 0 0.96875 -0.34375q0.375 -0.359375 0.375 -0.859375q0 -0.59375 -0.421875 -1.0q-0.421875 -0.40625 -1.6875 -1.03125q-1.25 -0.625 -1.625 -1.125q-0.390625 -0.5 -0.390625 -1.25q0 -0.984375 0.671875 -1.640625q0.671875 -0.671875 1.734375 -0.671875q0.46875 0 1.140625 0.203125q0.4375 0.140625 0.578125 0.140625q0.140625 0 0.21875 -0.0625q0.078125 -0.0625 0.1875 -0.28125l0.28125 0z" fill-rule="nonzero"/><path fill="#cfe2f3" d="m43.889763 679.1942l229.6828 0l0 -3.7874146l11.293579 7.574829l-11.293579 7.574829l0 -3.7874146l-229.6828 0z" fill-rule="evenodd"/><path stroke="#000000" stroke-width="1.0" stroke-linejoin="round" stroke-linecap="butt" d="m43.889763 679.1942l229.6828 0l0 -3.7874146l11.293579 7.574829l-11.293579 7.574829l0 -3.7874146l-229.6828 0z" fill-rule="evenodd"/><path fill="#cfe2f3" d="m40.614174 482.97113l6.661415 -6.6614075l6.661419 6.6614075l-3.3307076 0l0 202.59845l-6.661419 0l0 -202.59845z" fill-rule="evenodd"/><path stroke="#000000" stroke-width="1.0" stroke-linejoin="round" stroke-linecap="butt" d="m40.614174 482.97113l6.661415 -6.6614075l6.661419 6.6614075l-3.3307076 0l0 202.59845l-6.661419 0l0 -202.59845z" fill-rule="evenodd"/><path fill="#000000" fill-opacity="0.0" d="m52.40945 466.5013l40.692913 0l0 36.629913l-40.692913 0z" fill-rule="evenodd"/><path fill="#000000" d="m66.28445 492.14008l0 -4.546875l-4.531246 0l0 -0.75l4.531246 0l0 -4.53125l0.734375 0l0 4.53125l4.546875 0l0 0.75l-4.546875 0l0 4.546875l-0.734375 0zm5.755844 -7.0625l3.890625 0l0 0.34375l-0.1875 0q-0.421875 0 -0.625 0.171875q-0.203125 0.171875 -0.203125 0.4375q0 0.359375 0.296875 0.984375l2.03125 4.203125l1.875 -4.609375q0.15625 -0.359375 0.15625 -0.734375q0 -0.15625 -0.0625 -0.234375q-0.078125 -0.109375 -0.234375 -0.15625q-0.15625 -0.0625 -0.546875 -0.0625l0 -0.34375l2.71875 0l0 0.34375q-0.34375 0.03125 -0.53125 0.140625q-0.171875 0.109375 -0.390625 0.40625q-0.078125 0.125 -0.3125 0.703125l-3.390625 8.328125q-0.5 1.203125 -1.296875 1.828125q-0.796875 0.625 -1.53125 0.625q-0.53125 0 -0.890625 -0.3125q-0.34375 -0.3125 -0.34375 -0.71875q0 -0.375 0.25 -0.609375q0.25 -0.234375 0.6875 -0.234375q0.3125 0 0.828125 0.203125q0.359375 0.140625 0.453125 0.140625q0.28125 0 0.59375 -0.28125q0.328125 -0.28125 0.65625 -1.09375l0.59375 -1.453125l-3.0 -6.296875q-0.140625 -0.28125 -0.4375 -0.703125q-0.234375 -0.3125 -0.375 -0.421875q-0.203125 -0.140625 -0.671875 -0.25l0 -0.34375z" fill-rule="nonzero"/><path fill="#000000" fill-opacity="0.0" d="m271.2021 643.55383l40.692932 0l0 42.015747l-40.692932 0z" fill-rule="evenodd"/><path fill="#000000" d="m284.87396 668.31757l0 -3.671875l-3.640625 0l0 -1.515625l3.640625 0l0 -3.640625l1.546875 0l0 3.640625l3.640625 0l0 1.515625l-3.640625 0l0 3.671875l-1.546875 0zm6.3637085 2.15625l3.53125 -5.03125l-3.265625 -4.640625l2.046875 0l1.484375 2.265625q0.421875 0.640625 0.671875 1.078125q0.40625 -0.59375 0.734375 -1.0625l1.640625 -2.28125l1.953125 0l-3.34375 4.546875l3.59375 5.125l-2.015625 0l-1.984375 -3.0l-0.515625 -0.8125l-2.546875 3.8125l-1.984375 0z" fill-rule="nonzero"/></g></svg>